<svg xmlns="http://www.w3.org/2000/svg" style="display:none">
  <symbol id="arrow-up" viewBox="0 0 24 24"><path d="m5 15 7-7 7 7" fill="none" stroke="currentColor" stroke-width="1.8" stroke-linecap="round" stroke-linejoin="round"/></symbol>
  <symbol id="arrow-down" viewBox="0 0 24 24"><path d="m5 9 7 7 7-7" fill="none" stroke="currentColor" stroke-width="1.8" stroke-linecap="round" stroke-linejoin="round"/></symbol>
  <symbol id="chart" viewBox="0 0 24 24"><path d="M4 19V5m0 14h16M8 16v-4m4 4V8m4 8v-7" fill="none" stroke="currentColor" stroke-width="1.8" stroke-linecap="round" stroke-linejoin="round"/></symbol>
  <symbol id="image" viewBox="0 0 24 24"><rect x="3.5" y="4" width="17" height="16" rx="2" fill="none" stroke="currentColor" stroke-width="1.8"/><circle cx="8.5" cy="9" r="1.3" fill="currentColor"/><path d="m5.5 17 4.2-4.2 3 2.8 2-2 3.8 3.4" fill="none" stroke="currentColor" stroke-width="1.8" stroke-linecap="round" stroke-linejoin="round"/></symbol>
  <symbol id="alert" viewBox="0 0 24 24"><path d="m12 4 8 15H4L12 4Z" fill="none" stroke="currentColor" stroke-width="1.8" stroke-linejoin="round"/><path d="M12 9v4m0 3h.01" fill="none" stroke="currentColor" stroke-width="1.8" stroke-linecap="round"/></symbol>
  <symbol id="check" viewBox="0 0 24 24"><path d="m5 12 4.3 4.3L19 6.7" fill="none" stroke="currentColor" stroke-width="2" stroke-linecap="round" stroke-linejoin="round"/></symbol>
  <symbol id="filter" viewBox="0 0 24 24"><path d="M4 6h16M7 12h10m-7 6h4" fill="none" stroke="currentColor" stroke-width="1.8" stroke-linecap="round"/></symbol>
  <symbol id="close" viewBox="0 0 24 24"><path d="m6 6 12 12M18 6 6 18" fill="none" stroke="currentColor" stroke-width="1.8" stroke-linecap="round"/></symbol>
</svg>
